<?xml version="1.0" encoding="UTF-8"?>
<!DOCTYPE svg PUBLIC "-//W3C//DTD SVG 1.1//EN" "http://www.w3.org/Graphics/SVG/1.1/DTD/svg11.dtd">
<svg xmlns="http://www.w3.org/2000/svg" version="1.1" width="806px" height="150px" style="shape-rendering:geometricPrecision; text-rendering:geometricPrecision; image-rendering:optimizeQuality; fill-rule:evenodd; clip-rule:evenodd" xmlns:xlink="http://www.w3.org/1999/xlink">
<g><path style="opacity:1" fill="#0f111c" d="M -0.5,-0.5 C 268.167,-0.5 536.833,-0.5 805.5,-0.5C 805.5,49.5 805.5,99.5 805.5,149.5C 536.833,149.5 268.167,149.5 -0.5,149.5C -0.5,99.5 -0.5,49.5 -0.5,-0.5 Z"/></g>
<g><path style="opacity:1" fill="#de8418" d="M 55.5,13.5 C 60.954,11.8119 65.954,12.8119 70.5,16.5C 68.5956,16.7376 67.2623,17.7376 66.5,19.5C 63.5701,18.701 60.5701,18.3677 57.5,18.5C 58.6253,16.8712 59.9586,15.3712 61.5,14C 59.5273,13.5045 57.5273,13.3379 55.5,13.5 Z"/></g>
<g><path style="opacity:1" fill="#f2a90d" d="M 55.5,13.5 C 57.5273,13.3379 59.5273,13.5045 61.5,14C 59.9586,15.3712 58.6253,16.8712 57.5,18.5C 53.5713,19.4308 50.9047,21.7641 49.5,25.5C 45.8307,31.9165 44.164,31.5832 44.5,24.5C 45.7969,18.5363 49.4636,14.8696 55.5,13.5 Z"/></g>
<g><path style="opacity:1" fill="#10111c" d="M 57.5,18.5 C 60.5701,18.3677 63.5701,18.701 66.5,19.5C 68.2516,21.2459 69.5849,23.2459 70.5,25.5C 70.5,28.5 70.5,31.5 70.5,34.5C 63.5,34.5 56.5,34.5 49.5,34.5C 49.5,31.5 49.5,28.5 49.5,25.5C 50.9047,21.7641 53.5713,19.4308 57.5,18.5 Z"/></g>
<g><path style="opacity:1" fill="#e25c26" d="M 70.5,16.5 C 72.9,18.2964 74.5667,20.6298 75.5,23.5C 73.6783,22.5714 72.3449,23.2381 71.5,25.5C 71.1667,25.5 70.8333,25.5 70.5,25.5C 69.5849,23.2459 68.2516,21.2459 66.5,19.5C 67.2623,17.7376 68.5956,16.7376 70.5,16.5 Z"/></g>
<g><path style="opacity:1" fill="#e83d35" d="M 75.5,23.5 C 75.5,23.8333 75.5,24.1667 75.5,24.5C 75.8134,27.2469 75.48,29.9135 74.5,32.5C 73.5832,33.1272 72.5832,33.4606 71.5,33.5C 71.5,30.8333 71.5,28.1667 71.5,25.5C 72.3449,23.2381 73.6783,22.5714 75.5,23.5 Z"/></g>
<g><path style="opacity:1" fill="#f8f8f8" d="M 309.5,28.5 C 319.025,28.5227 322.858,33.1894 321,42.5C 314.833,49.4124 309.167,49.0791 304,41.5C 302.571,35.7001 304.404,31.3668 309.5,28.5 Z"/></g>
<g><path style="opacity:1" fill="#f5f5f5" d="M 448.5,28.5 C 457.478,28.3098 461.311,32.6431 460,41.5C 456.537,47.6631 451.703,48.9965 445.5,45.5C 439.662,38.6878 440.662,33.0211 448.5,28.5 Z"/></g>
<g><path style="opacity:1" fill="#f5f5f6" d="M 607.5,28.5 C 613.347,27.8399 617.513,30.1733 620,35.5C 620.345,44.1533 616.178,47.9866 607.5,47C 602.268,44.3674 600.435,40.2008 602,34.5C 603.36,31.9774 605.193,29.9774 607.5,28.5 Z"/></g>
<g><path style="opacity:1" fill="#fcfcfc" d="M 182.5,33.5 C 182.5,55.5 182.5,77.5 182.5,99.5C 177.5,99.5 172.5,99.5 167.5,99.5C 167.5,77.5 167.5,55.5 167.5,33.5C 172.5,33.5 177.5,33.5 182.5,33.5 Z"/></g>
<g><path style="opacity:1" fill="#4f5159" d="M 182.5,33.5 C 183.497,55.6604 183.831,77.9938 183.5,100.5C 177.974,100.821 172.64,100.488 167.5,99.5C 172.5,99.5 177.5,99.5 182.5,99.5C 182.5,77.5 182.5,55.5 182.5,33.5 Z"/></g>
<g><path style="opacity:1" fill="#fbfbfb" d="M 279.5,33.5 C 284.167,33.5 288.833,33.5 293.5,33.5C 293.5,55.5 293.5,77.5 293.5,99.5C 288.261,100.037 283.261,99.37 278.5,97.5C 277.893,97.6236 277.56,97.9569 277.5,98.5C 260.836,104.416 250.003,98.7491 245,81.5C 243.373,67.5804 248.873,57.7471 261.5,52C 267.175,50.9318 272.508,51.7652 277.5,54.5C 277.56,55.0431 277.893,55.3764 278.5,55.5C 279.497,48.1968 279.831,40.8635 279.5,33.5 Z"/></g>
<g><path style="opacity:1" fill="#dd7c1a" d="M 44.5,24.5 C 44.164,31.5832 45.8307,31.9165 49.5,25.5C 49.5,28.5 49.5,31.5 49.5,34.5C 49.5,34.8333 49.5,35.1667 49.5,35.5C 45.957,34.9912 43.6237,36.6579 42.5,40.5C 40.1667,40.5 37.8333,40.5 35.5,40.5C 36.4728,38.8506 37.4728,37.184 38.5,35.5C 40.1667,35.5 41.8333,35.5 43.5,35.5C 43.185,31.6286 43.5184,27.9619 44.5,24.5 Z"/></g>
<g><path style="opacity:1" fill="#502023" d="M 70.5,25.5 C 70.8333,25.5 71.1667,25.5 71.5,25.5C 71.5,28.1667 71.5,30.8333 71.5,33.5C 71.6716,34.4916 71.3382,35.1583 70.5,35.5C 65.5,35.5 60.5,35.5 55.5,35.5C 53.5,35.5 51.5,35.5 49.5,35.5C 49.5,35.1667 49.5,34.8333 49.5,34.5C 56.5,34.5 63.5,34.5 70.5,34.5C 70.5,31.5 70.5,28.5 70.5,25.5 Z"/></g>
<g><path style="opacity:1" fill="#fefefe" d="M 394.5,34.5 C 404.5,34.5 414.5,34.5 424.5,34.5C 424.5,38.1667 424.5,41.8333 424.5,45.5C 414.5,45.5 404.5,45.5 394.5,45.5C 394.5,41.8333 394.5,38.1667 394.5,34.5 Z"/></g>
<g><path style="opacity:1" fill="#e45d26" d="M 49.5,35.5 C 51.5,35.5 53.5,35.5 55.5,35.5C 54.1667,37.1667 52.8333,38.8333 51.5,40.5C 50.5084,40.3284 49.8417,40.6618 49.5,41.5C 50.172,44.9079 49.172,47.5745 46.5,49.5C 45.5224,49.0233 44.6891,48.3567 44,47.5C 43.8138,44.9644 43.3138,42.631 42.5,40.5C 43.6237,36.6579 45.957,34.9912 49.5,35.5 Z"/></g>
<g><path style="opacity:1" fill="#e94631" d="M 55.5,35.5 C 60.5,35.5 65.5,35.5 70.5,35.5C 68.5,37.1667 66.5,38.8333 64.5,40.5C 60.1667,40.5 55.8333,40.5 51.5,40.5C 52.8333,38.8333 54.1667,37.1667 55.5,35.5 Z"/></g>
<g><path style="opacity:1" fill="#e33461" d="M 75.5,24.5 C 76.4816,27.9619 76.815,31.6286 76.5,35.5C 77.5,35.5 78.5,35.5 79.5,35.5C 77.1096,38.2286 74.443,40.5619 71.5,42.5C 69.7211,40.6565 67.3878,39.9898 64.5,40.5C 66.5,38.8333 68.5,37.1667 70.5,35.5C 71.3382,35.1583 71.6716,34.4916 71.5,33.5C 72.5832,33.4606 73.5832,33.1272 74.5,32.5C 75.48,29.9135 75.8134,27.2469 75.5,24.5 Z"/></g>
<g><path style="opacity:1" fill="#f29e11" d="M 38.5,35.5 C 37.4728,37.184 36.4728,38.8506 35.5,40.5C 33.8333,40.5 32.1667,40.5 30.5,40.5C 30.3259,42.861 29.9926,45.1944 29.5,47.5C 28.1147,48.6138 26.6147,49.6138 25,50.5C 24.5357,49.9056 24.369,49.2389 24.5,48.5C 22.7288,37.2719 27.3955,32.9385 38.5,35.5 Z"/></g>
<g><path style="opacity:1" fill="#4d1d2d" d="M 49.5,41.5 C 49.8417,40.6618 50.5084,40.3284 51.5,40.5C 55.8333,40.5 60.1667,40.5 64.5,40.5C 67.3878,39.9898 69.7211,40.6565 71.5,42.5C 71.5,44.1667 71.5,45.8333 71.5,47.5C 70.5386,45.7354 70.2053,43.7354 70.5,41.5C 63.5,41.5 56.5,41.5 49.5,41.5 Z"/></g>
<g><path style="opacity:1" fill="#461b42" d="M 76.5,41.5 C 80.6344,40.5151 84.9677,40.1818 89.5,40.5C 90.4511,41.9187 90.7845,43.5853 90.5,45.5C 89.5655,44.4324 89.2322,43.099 89.5,41.5C 85.1667,41.5 80.8333,41.5 76.5,41.5 Z"/></g>
<g><path style="opacity:1" fill="#10111c" d="M 35.5,40.5 C 37.8333,40.5 40.1667,40.5 42.5,40.5C 43.3138,42.631 43.8138,44.9644 44,47.5C 44.6891,48.3567 45.5224,49.0233 46.5,49.5C 49.172,47.5745 50.172,44.9079 49.5,41.5C 56.5,41.5 63.5,41.5 70.5,41.5C 70.2053,43.7354 70.5386,45.7354 71.5,47.5C 72.8499,50.106 74.3499,50.106 76,47.5C 76.4955,45.5273 76.6621,43.5273 76.5,41.5C 80.8333,41.5 85.1667,41.5 89.5,41.5C 89.2322,43.099 89.5655,44.4324 90.5,45.5C 90.8684,52.0082 91.535,58.3416 92.5,64.5C 92.6458,68.5191 92.9791,72.5191 93.5,76.5C 93.2053,78.7354 93.5386,80.7354 94.5,82.5C 94.5,84.5 94.5,86.5 94.5,88.5C 94.9434,92.6495 95.2767,96.8161 95.5,101C 96.8896,106.889 94.8896,110.889 89.5,113C 84.1771,113.499 78.8437,113.666 73.5,113.5C 70.1667,113.5 66.8333,113.5 63.5,113.5C 60.8333,113.5 58.1667,113.5 55.5,113.5C 56.4345,109.031 57.7679,104.697 59.5,100.5C 62.3957,94.8675 61.8957,89.5342 58,84.5C 57.1841,83.1772 56.0174,82.5106 54.5,82.5C 51.9831,81.027 49.1498,80.3603 46,80.5C 39.8683,81.5417 33.8683,83.2084 28,85.5C 27.2352,85.4301 26.7352,85.0967 26.5,84.5C 26.8333,81.8333 27.1667,79.1667 27.5,76.5C 27.5524,72.8019 27.8857,69.1352 28.5,65.5C 29.0742,59.5164 29.4075,53.5164 29.5,47.5C 29.9926,45.1944 30.3259,42.861 30.5,40.5C 32.1667,40.5 33.8333,40.5 35.5,40.5 Z"/></g>
<g><path style="opacity:1" fill="#b5b5b9" d="M 394.5,34.5 C 394.5,38.1667 394.5,41.8333 394.5,45.5C 404.5,45.5 414.5,45.5 424.5,45.5C 414.347,46.4942 404.014,46.8276 393.5,46.5C 393.183,42.2984 393.517,38.2984 394.5,34.5 Z"/></g>
<g><path style="opacity:1" fill="#8b8c92" d="M 279.5,33.5 C 279.831,40.8635 279.497,48.1968 278.5,55.5C 277.893,55.3764 277.56,55.0431 277.5,54.5C 278.167,47.5 278.833,40.5 279.5,33.5 Z"/></g>
<g><path style="opacity:1" fill="#de3391" d="M 79.5,35.5 C 83.8461,35.3343 88.1794,35.501 92.5,36C 93.4158,36.2784 94.0825,36.7784 94.5,37.5C 92.3364,37.7215 90.6697,38.7215 89.5,40.5C 84.9677,40.1818 80.6344,40.5151 76.5,41.5C 76.6621,43.5273 76.4955,45.5273 76,47.5C 74.3499,50.106 72.8499,50.106 71.5,47.5C 71.5,45.8333 71.5,44.1667 71.5,42.5C 74.443,40.5619 77.1096,38.2286 79.5,35.5 Z"/></g>
<g><path style="opacity:1" fill="#f8f9f9" d="M 135.5,51.5 C 142.636,51.0492 149.636,51.7159 156.5,53.5C 157.493,58.1196 157.827,62.7863 157.5,67.5C 151.411,64.9572 145.077,64.1238 138.5,65C 137.273,66.5874 137.606,67.9207 139.5,69C 146.696,69.726 152.863,72.5593 158,77.5C 162.07,89.193 158.237,97.0263 146.5,101C 139.039,101.963 131.706,101.463 124.5,99.5C 123.167,94.8333 123.167,90.1667 124.5,85.5C 130.59,88.1598 136.923,88.9932 143.5,88C 144.925,86.2859 144.592,84.9525 142.5,84C 136.052,82.8534 130.219,80.3534 125,76.5C 121.304,69.6309 121.804,63.1309 126.5,57C 129.564,55.1412 132.564,53.3079 135.5,51.5 Z"/></g>
<g><path style="opacity:1" fill="#fcfcfc" d="M 345.5,99.5 C 340.833,99.5 336.167,99.5 331.5,99.5C 331.5,84.1667 331.5,68.8333 331.5,53.5C 336.167,53.5 340.833,53.5 345.5,53.5C 345.56,54.0431 345.893,54.3764 346.5,54.5C 359.604,47.8144 369.104,51.1477 375,64.5C 375.5,76.4954 375.667,88.4954 375.5,100.5C 370.5,100.5 365.5,100.5 360.5,100.5C 360.666,90.1613 360.5,79.828 360,69.5C 355.38,64.1774 350.714,64.1774 346,69.5C 345.5,79.4944 345.334,89.4944 345.5,99.5 Z"/></g>
<g><path style="opacity:1" fill="#fafafa" d="M 399.5,51.5 C 405.605,50.651 411.105,51.9843 416,55.5C 416.483,54.552 416.649,53.552 416.5,52.5C 421.5,52.5 426.5,52.5 431.5,52.5C 431.5,68.5 431.5,84.5 431.5,100.5C 426.5,100.5 421.5,100.5 416.5,100.5C 416.649,99.448 416.483,98.448 416,97.5C 401.785,104.428 391.118,100.761 384,86.5C 378.901,70.0473 384.067,58.3806 399.5,51.5 Z"/></g>
<g><path style="opacity:1" fill="#fafafb" d="M 566.5,69.5 C 565.506,79.3194 565.173,89.3194 565.5,99.5C 560.833,99.5 556.167,99.5 551.5,99.5C 551.827,89.6522 551.494,79.9856 550.5,70.5C 549.207,65.9216 546.207,64.4216 541.5,66C 540.667,66.8333 539.833,67.6667 539,68.5C 538.5,79.1615 538.333,89.8281 538.5,100.5C 533.5,100.5 528.5,100.5 523.5,100.5C 523.5,84.5 523.5,68.5 523.5,52.5C 529.067,51.9539 534.4,52.6206 539.5,54.5C 546.897,50.2905 554.063,50.6238 561,55.5C 572.22,48.9837 582.22,50.317 591,59.5C 591.862,61.087 592.529,62.7536 593,64.5C 593.5,76.4954 593.667,88.4954 593.5,100.5C 588.5,100.5 583.5,100.5 578.5,100.5C 578.666,90.1613 578.5,79.828 578,69.5C 575.469,65.2099 571.969,64.3765 567.5,67C 566.748,67.6708 566.414,68.5041 566.5,69.5 Z"/></g>
<g><path style="opacity:1" fill="#f9fafa" d="M 667.5,51.5 C 690.186,49.687 700.686,60.0203 699,82.5C 696.607,91.8933 690.774,98.0599 681.5,101C 666.925,103.465 656.758,97.9648 651,84.5C 647.516,68.7997 653.016,57.7997 667.5,51.5 Z"/></g>
<g><path style="opacity:1" fill="#fafafa" d="M 728.5,51.5 C 731.167,51.5 733.833,51.5 736.5,51.5C 736.5,56.5 736.5,61.5 736.5,66.5C 732.727,66.2633 729.06,66.7633 725.5,68C 724.299,68.9025 723.465,70.0692 723,71.5C 722.5,81.1609 722.334,90.8276 722.5,100.5C 717.5,100.5 712.5,100.5 707.5,100.5C 707.5,84.5 707.5,68.5 707.5,52.5C 713.067,51.9539 718.4,52.6206 723.5,54.5C 725.396,53.7255 727.063,52.7255 728.5,51.5 Z"/></g>
<g><path style="opacity:1" fill="#fafafb" d="M 757.5,51.5 C 762.429,51.2535 767.095,52.2535 771.5,54.5C 776.6,52.6206 781.933,51.9539 787.5,52.5C 787.667,67.1705 787.5,81.8371 787,96.5C 785.624,106.876 779.791,113.043 769.5,115C 761.805,115.691 754.139,115.525 746.5,114.5C 746.173,109.456 746.506,104.456 747.5,99.5C 754.449,103.182 761.449,103.349 768.5,100C 771.402,98.0603 772.402,95.5603 771.5,92.5C 758.718,98.847 748.884,95.847 742,83.5C 738.372,72.9094 740.539,63.7427 748.5,56C 751.324,53.9212 754.324,52.4212 757.5,51.5 Z"/></g>
<g><path style="opacity:1" fill="#fafafa" d="M 192.5,52.5 C 197.5,52.5 202.5,52.5 207.5,52.5C 207.334,62.8387 207.5,73.172 208,83.5C 211.07,87.7071 214.903,88.5405 219.5,86C 220.893,84.8289 221.727,83.3289 222,81.5C 222.5,71.8391 222.666,62.1724 222.5,52.5C 227.5,52.5 232.5,52.5 237.5,52.5C 237.5,68.5 237.5,84.5 237.5,100.5C 231.933,101.046 226.6,100.379 221.5,98.5C 207.93,104.926 198.43,101.26 193,87.5C 192.5,75.8381 192.333,64.1714 192.5,52.5 Z"/></g>
<g><path style="opacity:1" fill="#fefffe" d="M 305.5,53.5 C 310.167,53.5 314.833,53.5 319.5,53.5C 319.5,68.8333 319.5,84.1667 319.5,99.5C 314.833,99.5 310.167,99.5 305.5,99.5C 305.5,84.1667 305.5,68.8333 305.5,53.5 Z"/></g>
<g><path style="opacity:1" fill="#aaaaae" d="M 305.5,53.5 C 305.5,53.1667 305.5,52.8333 305.5,52.5C 310.5,52.5 315.5,52.5 320.5,52.5C 320.5,68.1667 320.5,83.8333 320.5,99.5C 320.167,99.5 319.833,99.5 319.5,99.5C 319.5,84.1667 319.5,68.8333 319.5,53.5C 314.833,53.5 310.167,53.5 305.5,53.5 Z"/></g>
<g><path style="opacity:1" fill="#fdfdfd" d="M 458.5,102.5 C 458.324,107.692 455.991,111.525 451.5,114C 446.264,115.339 440.93,115.839 435.5,115.5C 435.5,111.167 435.5,106.833 435.5,102.5C 437.527,102.662 439.527,102.495 441.5,102C 442.823,101.184 443.489,100.017 443.5,98.5C 444.496,83.676 444.829,68.676 444.5,53.5C 449.167,53.5 453.833,53.5 458.5,53.5C 458.5,69.8333 458.5,86.1667 458.5,102.5 Z"/></g>
<g><path style="opacity:1" fill="#fafafa" d="M 468.5,52.5 C 473.5,52.5 478.5,52.5 483.5,52.5C 483.334,62.8387 483.5,73.172 484,83.5C 487.07,87.7071 490.903,88.5405 495.5,86C 496.893,84.8289 497.727,83.3289 498,81.5C 498.5,71.8391 498.666,62.1724 498.5,52.5C 503.5,52.5 508.5,52.5 513.5,52.5C 513.5,68.5 513.5,84.5 513.5,100.5C 508.5,100.5 503.5,100.5 498.5,100.5C 498.649,99.448 498.483,98.448 498,97.5C 485.065,104.966 475.399,101.966 469,88.5C 468.5,76.5046 468.333,64.5046 468.5,52.5 Z"/></g>
<g><path style="opacity:1" fill="#6a6b72" d="M 603.5,52.5 C 603.5,52.8333 603.5,53.1667 603.5,53.5C 603.5,68.8333 603.5,84.1667 603.5,99.5C 608.167,99.5 612.833,99.5 617.5,99.5C 617.833,99.5 618.167,99.5 618.5,99.5C 613.36,100.488 608.026,100.821 602.5,100.5C 602.17,84.3246 602.504,68.3246 603.5,52.5 Z"/></g>
<g><path style="opacity:1" fill="#fefffe" d="M 603.5,53.5 C 608.167,53.5 612.833,53.5 617.5,53.5C 617.5,68.8333 617.5,84.1667 617.5,99.5C 612.833,99.5 608.167,99.5 603.5,99.5C 603.5,84.1667 603.5,68.8333 603.5,53.5 Z"/></g>
<g><path style="opacity:1" fill="#bcbdc0" d="M 603.5,53.5 C 603.5,53.1667 603.5,52.8333 603.5,52.5C 608.5,52.5 613.5,52.5 618.5,52.5C 618.5,68.1667 618.5,83.8333 618.5,99.5C 618.167,99.5 617.833,99.5 617.5,99.5C 617.5,84.1667 617.5,68.8333 617.5,53.5C 612.833,53.5 608.167,53.5 603.5,53.5 Z"/></g>
<g><path style="opacity:1" fill="#b232c2" d="M 94.5,37.5 C 96.3953,44.9898 97.3953,52.6565 97.5,60.5C 96.8365,58.9581 96.1698,57.2914 95.5,55.5C 94.5224,55.9767 93.6891,56.6433 93,57.5C 92.5034,59.8098 92.3367,62.1432 92.5,64.5C 91.535,58.3416 90.8684,52.0082 90.5,45.5C 90.7845,43.5853 90.4511,41.9187 89.5,40.5C 90.6697,38.7215 92.3364,37.7215 94.5,37.5 Z"/></g>
<g><path style="opacity:1" fill="#cacacd" d="M 345.5,53.5 C 340.833,53.5 336.167,53.5 331.5,53.5C 331.5,68.8333 331.5,84.1667 331.5,99.5C 336.167,99.5 340.833,99.5 345.5,99.5C 340.695,100.487 335.695,100.821 330.5,100.5C 330.5,84.5 330.5,68.5 330.5,52.5C 335.695,52.1795 340.695,52.5128 345.5,53.5 Z"/></g>
<g><path style="opacity:1" fill="#e15728" d="M 29.5,47.5 C 29.4075,53.5164 29.0742,59.5164 28.5,65.5C 23.8031,70.8632 22.1364,69.5299 23.5,61.5C 23.1818,56.9677 23.5151,52.6344 24.5,48.5C 24.369,49.2389 24.5357,49.9056 25,50.5C 26.6147,49.6138 28.1147,48.6138 29.5,47.5 Z"/></g>
<g><path style="opacity:1" fill="#8b3be1" d="M 97.5,60.5 C 97.5,61.5 97.5,62.5 97.5,63.5C 97.665,66.8499 97.4983,70.1832 97,73.5C 95.9609,74.7101 94.7942,75.7101 93.5,76.5C 92.9791,72.5191 92.6458,68.5191 92.5,64.5C 92.3367,62.1432 92.5034,59.8098 93,57.5C 93.6891,56.6433 94.5224,55.9767 95.5,55.5C 96.1698,57.2914 96.8365,58.9581 97.5,60.5 Z"/></g>
<g><path style="opacity:1" fill="#141620" d="M 266.5,64.5 C 277.597,65.6727 281.431,71.6727 278,82.5C 275.103,87.1549 270.937,88.6549 265.5,87C 263.185,85.8906 261.685,84.0573 261,81.5C 258.959,74.3512 260.792,68.6845 266.5,64.5 Z"/></g>
<g><path style="opacity:1" fill="#939499" d="M 293.5,33.5 C 294.497,55.6604 294.831,77.9938 294.5,100.5C 288.537,101.045 282.87,100.379 277.5,98.5C 277.56,97.9569 277.893,97.6236 278.5,97.5C 283.261,99.37 288.261,100.037 293.5,99.5C 293.5,77.5 293.5,55.5 293.5,33.5 Z"/></g>
<g><path style="opacity:1" fill="#131620" d="M 404.5,64.5 C 414.388,65.2318 418.222,70.5652 416,80.5C 413.792,87.1097 409.292,89.2764 402.5,87C 397.789,82.8604 396.289,77.6938 398,71.5C 399.356,68.3142 401.522,65.9809 404.5,64.5 Z"/></g>
<g><path style="opacity:1" fill="#9e9ea3" d="M 458.5,102.5 C 458.5,86.1667 458.5,69.8333 458.5,53.5C 453.833,53.5 449.167,53.5 444.5,53.5C 444.829,68.676 444.496,83.676 443.5,98.5C 443.5,83.1667 443.5,67.8333 443.5,52.5C 448.833,52.5 454.167,52.5 459.5,52.5C 459.83,69.3417 459.497,86.0084 458.5,102.5 Z"/></g>
<g><path style="opacity:1" fill="#11131d" d="M 670.5,65.5 C 681.769,64.2725 686.269,69.2725 684,80.5C 681.792,87.1097 677.292,89.2764 670.5,87C 665.912,82.8113 664.412,77.6447 666,71.5C 666.979,69.0324 668.479,67.0324 670.5,65.5 Z"/></g>
<g><path style="opacity:1" fill="#131620" d="M 759.5,65.5 C 769.157,63.9917 773.323,67.9917 772,77.5C 770.281,80.9197 767.448,82.5863 763.5,82.5C 756.923,80.694 754.423,76.3606 756,69.5C 757.376,68.2949 758.542,66.9616 759.5,65.5 Z"/></g>
<g><path style="opacity:1" fill="#da3540" d="M 23.5,61.5 C 22.1364,69.5299 23.8031,70.8632 28.5,65.5C 27.8857,69.1352 27.5524,72.8019 27.5,76.5C 25.7708,77.1175 24.2708,78.1175 23,79.5C 22.5026,76.854 22.3359,74.1873 22.5,71.5C 22.1872,67.9581 22.5206,64.6248 23.5,61.5 Z"/></g>
<g><path style="opacity:1" fill="#536ce1" d="M 97.5,63.5 C 98.4849,67.6344 98.8182,71.9677 98.5,76.5C 98.6495,77.552 98.4828,78.552 98,79.5C 96.4815,80.1634 95.3149,81.1634 94.5,82.5C 93.5386,80.7354 93.2053,78.7354 93.5,76.5C 94.7942,75.7101 95.9609,74.7101 97,73.5C 97.4983,70.1832 97.665,66.8499 97.5,63.5 Z"/></g>
<g><path style="opacity:1" fill="#d833b6" d="M 54.5,82.5 C 52.6675,83.2485 51.0009,84.2485 49.5,85.5C 42.0483,86.8698 34.715,88.8698 27.5,91.5C 25.3076,91.2427 23.6409,90.2427 22.5,88.5C 23.8333,87.1667 25.1667,85.8333 26.5,84.5C 26.7352,85.0967 27.2352,85.4301 28,85.5C 33.8683,83.2084 39.8683,81.5417 46,80.5C 49.1498,80.3603 51.9831,81.027 54.5,82.5 Z"/></g>
<g><path style="opacity:1" fill="#7c7d83" d="M 305.5,52.5 C 305.5,52.8333 305.5,53.1667 305.5,53.5C 305.5,68.8333 305.5,84.1667 305.5,99.5C 310.167,99.5 314.833,99.5 319.5,99.5C 319.833,99.5 320.167,99.5 320.5,99.5C 315.36,100.488 310.026,100.821 304.5,100.5C 304.17,84.3246 304.504,68.3246 305.5,52.5 Z"/></g>
<g><path style="opacity:1" fill="#f7f7f7" d="M 632.5,82.5 C 641.987,81.8195 646.154,86.1528 645,95.5C 642.367,100.732 638.201,102.565 632.5,101C 627.268,98.3674 625.435,94.2008 627,88.5C 628.36,85.9774 630.193,83.9774 632.5,82.5 Z"/></g>
<g><path style="opacity:1" fill="#da3375" d="M 22.5,71.5 C 22.3359,74.1873 22.5026,76.854 23,79.5C 24.2708,78.1175 25.7708,77.1175 27.5,76.5C 27.1667,79.1667 26.8333,81.8333 26.5,84.5C 25.1667,85.8333 23.8333,87.1667 22.5,88.5C 21.1667,82.8333 21.1667,77.1667 22.5,71.5 Z"/></g>
<g><path style="opacity:1" fill="#3893e7" d="M 98.5,76.5 C 99.4767,79.2869 99.81,82.2869 99.5,85.5C 97.6675,86.2485 96.0009,87.2485 94.5,88.5C 94.5,86.5 94.5,84.5 94.5,82.5C 95.3149,81.1634 96.4815,80.1634 98,79.5C 98.4828,78.552 98.6495,77.552 98.5,76.5 Z"/></g>
<g><path style="opacity:1" fill="#9433d2" d="M 54.5,82.5 C 56.0174,82.5106 57.1841,83.1772 58,84.5C 61.8957,89.5342 62.3957,94.8675 59.5,100.5C 57.8514,101.714 56.1848,103.047 54.5,104.5C 53.7025,104.043 53.3691,103.376 53.5,102.5C 54.965,98.6109 55.465,94.6109 55,90.5C 53.6484,88.251 51.8151,86.5844 49.5,85.5C 51.0009,84.2485 52.6675,83.2485 54.5,82.5 Z"/></g>
<g><path style="opacity:1" fill="#86878d" d="M 566.5,69.5 C 566.5,79.8333 566.5,90.1667 566.5,100.5C 561.167,100.5 555.833,100.5 550.5,100.5C 550.5,90.5 550.5,80.5 550.5,70.5C 551.494,79.9856 551.827,89.6522 551.5,99.5C 556.167,99.5 560.833,99.5 565.5,99.5C 565.173,89.3194 565.506,79.3194 566.5,69.5 Z"/></g>
<g><path style="opacity:1" fill="#09e0f5" d="M 99.5,85.5 C 100.898,93.116 101.398,100.783 101,108.5C 99.6836,113.648 96.517,116.982 91.5,118.5C 84.1591,118.666 76.8258,118.5 69.5,118C 71.6437,117.208 72.977,115.708 73.5,113.5C 78.8437,113.666 84.1771,113.499 89.5,113C 94.8896,110.889 96.8896,106.889 95.5,101C 95.2767,96.8161 94.9434,92.6495 94.5,88.5C 96.0009,87.2485 97.6675,86.2485 99.5,85.5 Z"/></g>
<g><path style="opacity:1" fill="#e63460" d="M 48.5,91.5 C 49.3382,91.8417 49.6716,92.5084 49.5,93.5C 40.7375,98.0967 32.4042,103.43 24.5,109.5C 22.847,109.34 21.5137,108.674 20.5,107.5C 29.6276,101.683 38.961,96.3495 48.5,91.5 Z"/></g>
<g><path style="opacity:1" fill="#e74631" d="M 48.5,91.5 C 38.961,96.3495 29.6276,101.683 20.5,107.5C 19.5084,107.672 18.8417,107.338 18.5,106.5C 22.3267,103.934 25.9934,101.101 29.5,98C 33.0219,97.1723 35.6885,96.0056 37.5,94.5C 40.7994,92.5165 44.4661,91.5165 48.5,91.5 Z"/></g>
<g><path style="opacity:1" fill="#e56a22" d="M 37.5,94.5 C 35.6885,96.0056 33.0219,97.1723 29.5,98C 25.9934,101.101 22.3267,103.934 18.5,106.5C 14.1798,106.041 13.5132,104.208 16.5,101C 23.4274,98.5237 30.4274,96.357 37.5,94.5 Z"/></g>
<g><path style="opacity:1" fill="#de34c1" d="M 48.5,97.5 C 48.1667,98.8333 47.8333,100.167 47.5,101.5C 42.155,103.99 37.155,107.157 32.5,111C 31.2068,111.49 29.8734,111.657 28.5,111.5C 32.0233,108.369 35.6899,105.202 39.5,102C 42.3914,100.273 45.3914,98.7734 48.5,97.5 Z"/></g>
<g><path style="opacity:1" fill="#655be8" d="M 59.5,100.5 C 57.7679,104.697 56.4345,109.031 55.5,113.5C 53.8333,114.167 52.1667,114.833 50.5,115.5C 50.1236,110.739 51.1236,106.405 53.5,102.5C 53.3691,103.376 53.7025,104.043 54.5,104.5C 56.1848,103.047 57.8514,101.714 59.5,100.5 Z"/></g>
<g><path style="opacity:1" fill="#e23499" d="M 49.5,93.5 C 49.5674,94.9587 49.2341,96.2921 48.5,97.5C 45.3914,98.7734 42.3914,100.273 39.5,102C 35.6899,105.202 32.0233,108.369 28.5,111.5C 26.847,111.34 25.5137,110.674 24.5,109.5C 32.4042,103.43 40.7375,98.0967 49.5,93.5 Z"/></g>
<g><path style="opacity:1" fill="#bc34ce" d="M 47.5,101.5 C 46.6373,103.421 45.9707,105.421 45.5,107.5C 40.6813,108.058 36.6813,110.225 33.5,114C 32.552,114.483 31.552,114.649 30.5,114.5C 29.5987,113.71 28.9321,112.71 28.5,111.5C 29.8734,111.657 31.2068,111.49 32.5,111C 37.155,107.157 42.155,103.99 47.5,101.5 Z"/></g>
<g><path style="opacity:1" fill="#8a3ce1" d="M 45.5,107.5 C 44.5,110.167 43.5,112.833 42.5,115.5C 39.3661,116.901 36.3661,118.568 33.5,120.5C 31.9925,118.819 30.9925,116.819 30.5,114.5C 31.552,114.649 32.552,114.483 33.5,114C 36.6813,110.225 40.6813,108.058 45.5,107.5 Z"/></g>
<g><path style="opacity:1" fill="#3e95f2" d="M 55.5,113.5 C 58.1667,113.5 60.8333,113.5 63.5,113.5C 61.6896,117.311 58.6896,118.977 54.5,118.5C 52.5956,118.262 51.2623,117.262 50.5,115.5C 52.1667,114.833 53.8333,114.167 55.5,113.5 Z"/></g>
<g><path style="opacity:1" fill="#1cabd7" d="M 63.5,113.5 C 66.8333,113.5 70.1667,113.5 73.5,113.5C 72.977,115.708 71.6437,117.208 69.5,118C 76.8258,118.5 84.1591,118.666 91.5,118.5C 79.1667,119.833 66.8333,119.833 54.5,118.5C 58.6896,118.977 61.6896,117.311 63.5,113.5 Z"/></g>
<g><path style="opacity:1" fill="#b62f9c" d="M 17.5,114.5 C 18.5735,115.251 18.7401,116.251 18,117.5C 16.4464,120.102 14.2798,121.269 11.5,121C 13.7059,118.963 15.7059,116.797 17.5,114.5 Z"/></g>
<g><path style="opacity:1" fill="#586fec" d="M 42.5,115.5 C 42.4431,116.609 42.1098,117.609 41.5,118.5C 38.5944,118.957 35.9278,119.957 33.5,121.5C 33.5,121.167 33.5,120.833 33.5,120.5C 36.3661,118.568 39.3661,116.901 42.5,115.5 Z"/></g>
<g><path style="opacity:1" fill="#3d95ef" d="M 41.5,118.5 C 41.4431,119.609 41.1098,120.609 40.5,121.5C 38.326,121.75 36.6594,122.75 35.5,124.5C 34.5987,123.71 33.9321,122.71 33.5,121.5C 35.9278,119.957 38.5944,118.957 41.5,118.5 Z"/></g>
<g><path style="opacity:1" fill="#18c6ee" d="M 40.5,121.5 C 40.7067,124.127 39.54,125.793 37,126.5C 35.9701,126.164 35.4701,125.497 35.5,124.5C 36.6594,122.75 38.326,121.75 40.5,121.5 Z"/></g>
<g><path style="opacity:1" fill="#d033b0" d="M 22.5,118.5 C 23.2389,118.369 23.9056,118.536 24.5,119C 20.2598,123.938 15.5931,127.938 10.5,131C 14.7036,126.964 18.7036,122.798 22.5,118.5 Z"/></g>
<g><path style="opacity:1" fill="#bb2fa1" d="M 24.5,125.5 C 25.3764,125.369 26.0431,125.702 26.5,126.5C 25.0792,129.343 23.0792,130.676 20.5,130.5C 21.8569,128.814 23.1902,127.148 24.5,125.5 Z"/></g>
</svg>
